Simulation
nRows=31
nColumns=15
endheader
time  TH_x TH_y TH_z SC_y  SC_z  SC_x  AC_y  AC_z  AC_x  GH_y  GH_z  GH_yy  EL_x  PS_y
1.5500000000000007  0.000000  0.000000  0.000000  -52.043996356531814  19.362271264187868  17.734626348943227  39.52105662361674  -7.828949979175393  -4.791846628394282  -36.7076919270537  19.59898169960521  87.3648236243374  82.66178645422836  120.000000
1.5810000000000006  0.000000  0.000000  0.000000  -52.129773418977415  19.467444188449573  17.935257977235537  39.54195867438017  -7.847938476096887  -4.784579705283593  -36.65822508879512  19.596448875503068  87.32832689512765  82.86236274987021  120.000000
1.6120000000000008  0.000000  0.000000  0.000000  -52.159806854242625  19.53051456488903  18.05344396924583  39.54170056940876  -7.860352296791369  -4.797074748550944  -36.504637660314465  19.57119007670346  87.12253852911981  82.89004125726427  120.000000
1.6430000000000007  0.000000  0.000000  0.000000  -52.12376575121148  19.538487645589363  18.09101530088936  39.52302054186059  -7.8646940184893985  -4.83577843109439  -36.24243810921082  19.516924106708675  86.74680386969644  82.73012473223226  120.000000
1.6740000000000008  0.000000  0.000000  0.000000  -52.01293260802408  19.478277623420844  18.05104592840123  39.48968491266292  -7.857840520397548  -4.905154408517868  -35.87575452369727  19.428357750666713  86.20899213400678  82.37027774308335  120.000000
1.7050000000000007  0.000000  0.000000  0.000000  -51.82149018797828  19.33909638034387  17.93803518444947  39.44570312410511  -7.835483715486093  -5.007613086657593  -35.41656303518459  19.30139231608965  85.52533219017079  81.80229785637249  120.000000
1.7360000000000007  0.000000  0.000000  0.000000  -51.54730743280381  19.11400171570754  17.75752502927559  39.395350537908065  -7.7922283950997056  -5.14412592321786  -34.88265152190812  19.132049893338245  84.71753119522529  81.02268478598785  120.000000
1.7670000000000008  0.000000  0.000000  0.000000  -51.19228374655665  18.800035072261206  17.516135645740558  39.34142711218929  -7.721965335449604  -5.31399776945585  -34.296736162493694  18.916887915880427  83.81252091716276  80.03322314454813  120.000000
1.7980000000000007  0.000000  0.000000  0.000000  -50.761270400127245  18.39892494222703  17.220844656701296  39.28579159419438  -7.618160398602843  -5.51462888153069  -33.68520747515228  18.65293655350446  82.84093428681281  78.84204857748327  120.000000
1.8290000000000008  0.000000  0.000000  0.000000  -50.26153322141225  17.916244803103762  16.878383940554183  39.23329567444867  -7.474252573555918  -5.741414304865495  -33.07426828065096  18.337373060178116  81.83068257682497  77.46363770766047  120.000000
1.8600000000000008  0.000000  0.000000  0.000000  -49.70453957640764  17.35885597572673  16.49628603962536  39.19003052324384  -7.285545344678934  -5.985726340275564  -32.49171573772779  17.96901787228847  80.8067615404647  75.91800909378006  120.000000
1.891000000000001  0.000000  0.000000  0.000000  -49.10578569107959  16.73410031040095  16.08243655699453  39.16133655042069  -7.049733354528317  -6.2342824676137125  -31.968032546149043  17.548920255327193  79.79322899300863  74.22929859049432  120.000000
1.9220000000000008  0.000000  0.000000  0.000000  -48.480427924285884  16.05150390120406  15.642631711083057  39.154132576979364  -6.764734512875522  -6.472702968310328  -31.529973080393443  17.077999414300336  78.8098422040692  72.42364315195677  120.000000
1.953000000000001  0.000000  0.000000  0.000000  -47.84099136714636  15.323396446517673  15.180528903740292  39.1740621729781  -6.4280895764248855  -6.68899231944828  -31.197117401681997  16.555393426814902  77.87182294323729  70.52704517470409  120.000000
1.9840000000000009  0.000000  0.000000  0.000000  -47.19774957960519  14.56255439871186  14.698342025310383  39.22267330163956  -6.03768634893498  -6.874538297209434  -30.98043385080568  15.978753012141977  76.98909315012125  68.56206739707606  120.000000
2.015000000000001  0.000000  0.000000  0.000000  -46.55812218371209  13.780521849589494  14.196244596387997  39.29876057806327  -5.592081602144503  -7.023632735169127  -30.87954686272371  15.34494112714328  76.16276889388708  66.54546263557081  120.000000
2.0460000000000007  0.000000  0.000000  0.000000  -45.92645692592306  12.987479868572844  13.672380930993743  39.39993206892914  -5.091492186063747  -7.1320928415419855  -30.881989626962266  14.651715529703598  75.38391195494077  64.48840247083606  120.000000
2.077000000000001  0.000000  0.000000  0.000000  -45.3044932209446  12.19234889460013  13.123233578523912  39.523571502455816  -4.539136663148399  -7.195507301986941  -30.964751674444408  13.900091794836866  74.63433808183969  62.39786235578721  120.000000
2.108000000000001  0.000000  0.000000  0.000000  -44.69235809881696  11.402939771447114  12.544189797788102  39.66810561218967  -3.9426024046348958  -7.207465635809954  -31.096425521359773  13.09692628986331  73.88772008700262  60.27813611006878  120.000000
2.139000000000001  0.000000  0.000000  0.000000  -44.0892962900554  10.62668603280065  11.930137355555884  39.83367035326532  -3.3150198757203944  -7.157915088854729  -31.240869080753434  12.25731954092772  73.11275581290609  58.132099344498855  120.000000
2.170000000000001  0.000000  0.000000  0.000000  -43.493961192429374  9.871619744782814  11.275703525367014  40.0234733878755  -2.6748233566211077  -7.033135788978099  -31.357644052817175  11.405102393006668  72.27327049618192  55.9622565533534  120.000000
2.201000000000001  0.000000  0.000000  0.000000  -42.90420985093381  9.146485411829707  10.575254367137767  40.244614466557216  -2.0436233634863417  -6.817632534708568  -31.399517614710618  10.57100594368835  71.32576059790414  53.77112350440363  120.000000
2.232000000000001  0.000000  0.000000  0.000000  -42.31727462058169  8.459152025337955  9.822968755956174  40.50677207250727  -1.4420659096623867  -6.497934871807891  -31.30664708842022  9.788178829205522  70.21394545961891  51.56142172722386  120.000000
2.263000000000001  0.000000  0.000000  0.000000  -41.7305608391834  7.814591860078489  9.013457869694859  40.816813134015284  -0.8854171936848996  -6.065942496676552  -31.00652903971582  9.08675289472711  68.87024523956033  49.33663455852164  120.000000
2.294000000000001  0.000000  0.000000  0.000000  -41.14288471910529  7.2140415525334936  8.142498943938527  41.17410625961228  -0.3807878059229174  -5.5206834696182545  -30.420508625684615  8.489450508439191  67.22359737496971  47.10177992721065  120.000000
2.325000000000001  0.000000  0.000000  0.000000  -40.554406824007955  6.654735292528521  7.207117533187058  41.57107752688083  0.07434330255713  -4.869702520880209  -29.470524532844042  8.009201514675782  65.20620657207338  44.863111504503394  120.000000
2.356000000000001  0.000000  0.000000  0.000000  -39.96715777266533  6.131320120945807  6.205946341153774  41.99556168578178  0.49046271659736074  -4.127652946847114  -28.090206164897587  7.6489253963618795  62.76389632164951  42.628536216508365  120.000000
2.387000000000001  0.000000  0.000000  0.000000  -39.38494840989123  5.638698202558659  5.139516583462986  42.43280941310597  0.8821812609745866  -3.3121110829806257  -26.24060992141734  7.403213386097011  59.87156286152131  40.40745108908776  120.000000
2.418000000000001  0.000000  0.000000  0.000000  -38.813073550814316  5.170459286021615  4.010193143948885  42.86732369848888  1.2668825240556298  -2.441892300774447  -23.921361231187404  7.261887876471035  56.54255352280806  38.21003975979518  120.000000
2.449000000000001  0.000000  0.000000  0.000000  -38.257246189468084  4.718873630222398  2.823649374953477  43.28544495397609  1.6615082415539844  -1.5365674652675574  -21.171311367716523  7.21253130279947  52.82780639277784  36.04584774715265  120.000000
2.4800000000000013  0.000000  0.000000  0.000000  -37.72297470103776  4.276519912100399  1.5901574853807983  43.67674347577595  2.0795233417825494  -0.6159665545723445  -18.060303450194844  7.241663539279445  48.807070352072884  33.923844602116574  120.000000
